<svg aria-hidden="true" style="position: absolute; width: 0; height: 0; overflow: hidden;" version="1.1"
    xmlns="http://www.w3.org/2000/svg" xmlns:xlink="http://www.w3.org/1999/xlink">
    <defs>
        <symbol id="icon-burger" viewBox="0 0 24 24">
            <path stroke-linejoin="round" stroke-linecap="round" stroke-miterlimit="4" stroke-width="1.875"
                d="M3 12h18M3 6h18M3 18h18"></path>
        </symbol>
        <symbol id="icon-logo" viewBox="0 0 27 32">
        <path fill="none" stroke="#fd9222" style="stroke: var(--color1, #fd9222)" stroke-linejoin="round" stroke-linecap="round" stroke-miterlimit="4" stroke-width="2.7429" d="M20.111 23.118l-14.185-8.864M9.837 7.837l14.186 8.864M9.106 25.102l11.736-19.25M25.652 14.027c-3.040-1.899-4.234-3.384-2.278-6.592l-9.626-6.015-11.736 19.25 14.186 8.864 9.454-15.507z"></path>
        </symbol>
        <symbol id="icon-instagram" viewBox="0 0 32 32">
<path fill="none"  stroke-linejoin="round" stroke-linecap="round" stroke-miterlimit="4" stroke-width="2.6667" d="M22.667 2.667h-13.333c-3.682 0-6.667 2.985-6.667 6.667v13.333c0 3.682 2.985 6.667 6.667 6.667h13.333c3.682 0 6.667-2.985 6.667-6.667v-13.333c0-3.682-2.985-6.667-6.667-6.667z"></path>
<path fill="none"  stroke-linejoin="round" stroke-linecap="round" stroke-miterlimit="4" stroke-width="2.6667" d="M21.333 15.16c0.165 1.11-0.025 2.243-0.542 3.239s-1.334 1.803-2.336 2.307c-1.002 0.504-2.138 0.68-3.245 0.502s-2.131-0.701-2.924-1.494-1.316-1.816-1.494-2.924c-0.178-1.108-0.003-2.243 0.502-3.245s1.312-1.819 2.308-2.336 2.129-0.706 3.239-0.542c1.132 0.168 2.18 0.695 2.989 1.504s1.337 1.857 1.504 2.989z"></path>
<path fill="none" stroke-linejoin="round" stroke-linecap="round" stroke-miterlimit="4" stroke-width="2.6667" d="M23.333 8.667h0.013"></path>
</symbol>

        <symbol id="icon-twitter" viewBox="0 0 32 32">
<path fill="none" stroke-linejoin="round" stroke-linecap="round" stroke-miterlimit="4" stroke-width="2.6667" d="M30.667 4c-1.277 0.901-2.691 1.589-4.187 2.040-0.803-0.923-1.87-1.578-3.057-1.875s-2.437-0.222-3.58 0.214c-1.143 0.436-2.125 1.213-2.812 2.226s-1.047 2.212-1.031 3.435v1.333c-2.343 0.061-4.665-0.459-6.759-1.513s-4.561-3.563-5.908-5.481c0 0-4.667 12.954 7.333 18.287-2.746 1.864-6.017 2.799-9.333 2.667 12 6.667 26.667 0 26.667-15.333-0.001-0.371-0.037-0.742-0.107-1.107 1.361-1.342 2.321-3.036 2.773-4.893z"></path>
</symbol>
        <symbol id="icon-choko-plate" viewBox="0 0 23 24">
            <path
                d="M9.784 0.342l6.229 6.237 0.066-0.066c0.128-0.125 0.303-0.202 0.496-0.202 0.188 0 0.358 0.073 0.485 0.192l-0-0 0.722 0.722c0.252 0.252 0.261 0.637 0.069 0.905l-0.003 0.006-0.118 0.159 5.098 5.098c0.455 0.455 0.455 1.183 0 1.639l-7.804 7.804c-0.455 0.455-1.183 0.455-1.639 0l-3.68-3.68c-0.121 0.151-0.301 0.251-0.505 0.263l-0.002 0c-0.012 0.001-0.025 0.001-0.039 0.001-0.193 0-0.368-0.078-0.494-0.205l-2.152-2.152c-0.125-0.128-0.202-0.303-0.202-0.496 0-0.188 0.073-0.358 0.192-0.485l-0 0 0.005-0.006 0.064-0.063-6.229-6.229c-0.455-0.455-0.455-1.183 0-1.639l7.804-7.804c0.455-0.455 1.183-0.455 1.639 0v0.001zM15.231 7.36l-1.453-1.452c-0.089-0.092-0.214-0.149-0.352-0.149s-0.263 0.057-0.352 0.149l-2.963 2.963c-0.091 0.091-0.148 0.217-0.148 0.356 0 0 0 0 0 0v0c0 0 0 0 0 0 0 0.139 0.057 0.265 0.148 0.356l1.447 1.447 0.505-0.505-1.295-1.295 2.657-2.665 1.298 1.303 0.507-0.507zM11.030 11.557l-1.452-1.452c-0.089-0.092-0.214-0.149-0.352-0.149-0.069 0-0.135 0.014-0.194 0.040l0.003-0.001c-0.063 0.027-0.116 0.064-0.161 0.11l-2.971 2.971c-0.199 0.19-0.199 0.505 0 0.703l1.45 1.45 0.51-0.51-1.299-1.294 2.665-2.657 1.294 1.294 0.506-0.506zM5.646 5.125l2.963 2.963c0.199 0.199 0.513 0.199 0.703-0.008l2.963-2.963c0.092-0.087 0.149-0.211 0.149-0.347 0-0 0-0 0-0v0h0.008c0-0.124-0.050-0.257-0.149-0.356l-2.963-2.963c-0.091-0.092-0.217-0.149-0.356-0.149-0.070 0-0.136 0.014-0.196 0.040l0.003-0.001c-0.063 0.027-0.118 0.064-0.163 0.11l-0 0-2.963 2.971c-0.199 0.19-0.199 0.505 0 0.703zM1.45 9.321l2.963 2.963c0.199 0.199 0.513 0.199 0.703 0l2.963-2.963c0.092-0.088 0.149-0.211 0.149-0.348 0-0.003-0-0.006-0-0.009v0h0.008c0-0.132-0.050-0.257-0.149-0.356l-2.963-2.963c-0.089-0.092-0.214-0.149-0.352-0.149s-0.263 0.057-0.352 0.149l-2.971 2.971c-0.199 0.19-0.199 0.505 0 0.703zM7.188 16.566l1.955 1.956 7.975-10.792-0.542-0.542-9.387 9.378z">
            </path>
            <path
                d="M9.784 0.342l6.229 6.237 0.066-0.066c0.128-0.125 0.303-0.202 0.496-0.202 0.188 0 0.358 0.073 0.485 0.192l-0-0 0.722 0.722c0.252 0.252 0.261 0.637 0.069 0.905l-0.003 0.006-0.118 0.159 5.098 5.098c0.455 0.455 0.455 1.183 0 1.639l-7.804 7.804c-0.455 0.455-1.183 0.455-1.639 0l-3.68-3.68c-0.121 0.151-0.301 0.251-0.505 0.263l-0.002 0c-0.012 0.001-0.025 0.001-0.039 0.001-0.193 0-0.368-0.078-0.494-0.205l-2.152-2.152c-0.125-0.128-0.202-0.303-0.202-0.496 0-0.188 0.073-0.358 0.192-0.485l-0 0 0.005-0.006 0.064-0.063-6.229-6.229c-0.455-0.455-0.455-1.183 0-1.639l7.804-7.804c0.455-0.455 1.183-0.455 1.639 0v0.001zM15.231 7.36l-1.453-1.452c-0.089-0.092-0.214-0.149-0.352-0.149s-0.263 0.057-0.352 0.149l-2.963 2.963c-0.091 0.091-0.148 0.217-0.148 0.356 0 0 0 0 0 0v0c0 0 0 0 0 0 0 0.139 0.057 0.265 0.148 0.356l1.447 1.447 0.505-0.505-1.295-1.295 2.657-2.665 1.298 1.303 0.507-0.507zM11.030 11.557l-1.452-1.452c-0.089-0.092-0.214-0.149-0.352-0.149-0.069 0-0.135 0.014-0.194 0.040l0.003-0.001c-0.063 0.027-0.116 0.064-0.161 0.11l-2.971 2.971c-0.199 0.19-0.199 0.505 0 0.703l1.45 1.45 0.51-0.51-1.299-1.294 2.665-2.657 1.294 1.294 0.506-0.506zM5.646 5.125l2.963 2.963c0.199 0.199 0.513 0.199 0.703-0.008l2.963-2.963c0.092-0.087 0.149-0.211 0.149-0.347 0-0 0-0 0-0v0h0.008c0-0.124-0.050-0.257-0.149-0.356l-2.963-2.963c-0.091-0.092-0.217-0.149-0.356-0.149-0.070 0-0.136 0.014-0.196 0.040l0.003-0.001c-0.063 0.027-0.118 0.064-0.163 0.11l-0 0-2.963 2.971c-0.199 0.19-0.199 0.505 0 0.703zM1.45 9.321l2.963 2.963c0.199 0.199 0.513 0.199 0.703 0l2.963-2.963c0.092-0.088 0.149-0.211 0.149-0.348 0-0.003-0-0.006-0-0.009v0h0.008c0-0.132-0.050-0.257-0.149-0.356l-2.963-2.963c-0.089-0.092-0.214-0.149-0.352-0.149s-0.263 0.057-0.352 0.149l-2.971 2.971c-0.199 0.19-0.199 0.505 0 0.703zM7.188 16.566l1.955 1.956 7.975-10.792-0.542-0.542-9.387 9.378z">
            </path>
        </symbol>
        <symbol id="icon-coin" viewBox="0 0 24 24">
            <path
                d="M12 0.571c-6.286 0-11.429 5.143-11.429 11.429s5.143 11.429 11.429 11.429c6.286 0 11.429-5.143 11.429-11.429s-5.143-11.429-11.429-11.429zM12 21.143c-5.029 0-9.143-4.114-9.143-9.143s4.114-9.143 9.143-9.143c5.029 0 9.143 4.114 9.143 9.143s-4.114 9.143-9.143 9.143z">
            </path>
            <path
                d="M13.486 10.857h-2.971c-0.001 0-0.003 0-0.004 0-0.566 0-1.024-0.459-1.024-1.024 0-0.002 0-0.003 0-0.005v0c0-0.571 0.457-1.029 1.029-1.029h4.229c0.686 0 1.143-0.457 1.143-1.143s-0.457-1.143-1.143-1.143h-1.6v-1.029c0-0.686-0.457-1.143-1.143-1.143s-1.143 0.457-1.143 1.143v1.029h-0.343c-1.829 0-3.314 1.486-3.314 3.314s1.486 3.314 3.314 3.314h2.857c0.571 0 1.029 0.457 1.029 1.029s-0.457 1.029-1.029 1.029h-4.229c-0.686 0-1.143 0.457-1.143 1.143s0.457 1.143 1.143 1.143h1.714v1.029c0 0.686 0.457 1.143 1.143 1.143s1.143-0.457 1.143-1.143v-1.029h0.343c1.829 0 3.314-1.486 3.314-3.314s-1.486-3.314-3.314-3.314z">
            </path>
        </symbol>
        <symbol id="icon-cross-button" viewBox="0 0 24 24">
            <path stroke-linejoin="round" stroke-linecap="round" stroke-miterlimit="4" stroke-width="3.4286"
                d="M21.994 2.006l-19.989 19.989M2.006 2.006l19.989 19.989"></path>
        </symbol>
        <symbol id="icon-arrow-down" viewBox="0 0 24 24">
            <path
                d="M12.71 13.4c-0.093 0.094-0.204 0.168-0.325 0.219s-0.253 0.077-0.385 0.077-0.263-0.026-0.385-0.077c-0.122-0.051-0.232-0.125-0.325-0.219l-4.58-4.59c-0.093-0.094-0.204-0.168-0.325-0.219s-0.253-0.077-0.385-0.077c-0.132 0-0.263 0.026-0.385 0.077s-0.232 0.125-0.325 0.219c-0.186 0.187-0.291 0.441-0.291 0.705s0.105 0.518 0.291 0.705l4.59 4.59c0.563 0.562 1.325 0.877 2.12 0.877s1.557-0.315 2.12-0.877l4.59-4.59c0.185-0.186 0.289-0.438 0.29-0.7 0.001-0.132-0.024-0.262-0.074-0.384s-0.123-0.233-0.216-0.326c-0.093-0.094-0.204-0.168-0.326-0.219s-0.253-0.077-0.385-0.077-0.263 0.026-0.385 0.077c-0.122 0.051-0.232 0.125-0.325 0.219l-4.58 4.59z">
            </path>
        </symbol>
        <symbol id="icon-spoon" viewBox="0 0 24 24">
            <path
                d="M11.53 10.377c-0.671-0.814-1.009-1.814-1.009-2.813 0-3.706 4.441-7.408 8.882-7.408 2.452 0 4.441 1.99 4.441 4.442 0 4.442-3.701 8.884-7.411 8.884-0.999 0-1.998-0.338-2.813-1.009l-10.936 10.938c-0.578 0.578-1.517 0.578-2.096 0s-0.578-1.518 0-2.096l10.94-10.938z">
            </path>
        </symbol>
        <symbol id="icon-close" viewBox="0 0 32 32">
            <path stroke-linejoin="round" stroke-linecap="round" stroke-miterlimit="4" stroke-width="2.2857"
                d="M24 8l-16 16"></path>
            <path stroke-linejoin="round" stroke-linecap="round" stroke-miterlimit="4" stroke-width="2.2857"
                d="M8 8l16 16"></path>
        </symbol>
        <symbol id="flag" viewBox="0 0 41 32">
            <path fill="#ffd700" style="fill: var(--color1, #ffd700)" d="M40.745 1.354h-40.435v30.092h40.435v-30.092z"></path>
            <path fill="#0057b7" style="fill: var(--color2, #0057b7)" d="M0.311 1.354h40.434v15.045h-40.435v-15.045z"></path>
        </symbol>
        <symbol id="icon-flag" viewBox="0 0 43 32">
            <path fill="#ffd700" d="M42.443 0.523h-42.119v31.344h42.119v-31.344z"></path>
            <path fill="#0057b7" d="M0.324 0.523h42.119v15.672h-42.119v-15.672z"></path>
        </symbol>
        <symbol id="icon-Mastercard" viewBox="0 0 50 32">
            <path fill="#ed0006" style="fill: var(--color1, #ed0006)" d="M25.143 28.078c-2.656 2.194-6.102 3.518-9.867 3.518-8.401 0-15.211-6.593-15.211-14.726s6.81-14.726 15.211-14.726c3.765 0 7.21 1.324 9.867 3.518 2.656-2.194 6.102-3.518 9.866-3.518 8.401 0 15.211 6.593 15.211 14.726s-6.81 14.726-15.211 14.726c-3.765 0-7.21-1.324-9.867-3.518z"></path>
            <path fill="#f9a000" style="fill: var(--color2, #f9a000)" d="M25.143 28.078c3.271-2.701 5.344-6.72 5.344-11.208s-2.074-8.507-5.344-11.208c2.656-2.194 6.102-3.518 9.866-3.518 8.401 0 15.211 6.593 15.211 14.726s-6.81 14.726-15.211 14.726c-3.765 0-7.21-1.324-9.867-3.518z"></path>
            <path fill="#ff5e00" style="fill: var(--color3, #ff5e00)" d="M25.143 28.078c3.271-2.701 5.344-6.72 5.344-11.208s-2.074-8.507-5.344-11.208c-3.271 2.701-5.344 6.72-5.344 11.208s2.074 8.507 5.344 11.208z"></path>
        </symbol>
    </defs>
</svg>