<svg aria-hidden="true" style="position: absolute; width: 0; height: 0; overflow: hidden;" version="1.1" xmlns="http://www.w3.org/2000/svg" xmlns:xlink="http://www.w3.org/1999/xlink">
<defs>
<symbol id="icon-burger" viewBox="0 0 24 24">
<path stroke-linejoin="round" stroke-linecap="round" stroke-miterlimit="4" stroke-width="1.875" d="M3 12h18M3 6h18M3 18h18"></path>
</symbol>
<symbol id="icon-logo" viewBox="0 0 21 24">
<path stroke-linejoin="round" stroke-linecap="round" stroke-miterlimit="4" stroke-width="2" d="M15.226 17.91l-10.64-6.648M7.521 6.449l10.639 6.648M6.972 19.398l8.802-14.437M19.382 11.091c-2.28-1.424-3.175-2.537-1.708-4.943l-7.22-4.512-8.801 14.438 10.64 6.648 7.090-11.63z"></path>
</symbol>
<symbol id="icon-instagram" viewBox="0 0 24 24">
<path stroke-linejoin="round" stroke-linecap="round" stroke-miterlimit="4" stroke-width="2" d="M17 2h-10c-2.761 0-5 2.239-5 5v0 10c0 2.761 2.239 5 5 5v0h10c2.761 0 5-2.239 5-5v0-10c0-2.761-2.239-5-5-5v0z"></path>
<path stroke-linejoin="round" stroke-linecap="round" stroke-miterlimit="4" stroke-width="2" d="M16 11.37c0.031 0.188 0.049 0.405 0.049 0.626 0 2.209-1.791 4-4 4-2.016 0-3.683-1.491-3.96-3.43l-0.002-0.021c-0.024-0.165-0.038-0.355-0.038-0.548 0-2.209 1.791-4 4-4 1.988 0 3.638 1.451 3.948 3.351l0.003 0.023z"></path>
<path stroke-linejoin="round" stroke-linecap="round" stroke-miterlimit="4" stroke-width="2" d="M16 11.37c0.031 0.188 0.049 0.405 0.049 0.626 0 2.209-1.791 4-4 4-2.016 0-3.683-1.491-3.96-3.43l-0.002-0.021c-0.024-0.165-0.038-0.355-0.038-0.548 0-2.209 1.791-4 4-4 1.988 0 3.638 1.451 3.948 3.351l0.003 0.023zM17.5 6.5h0.010M17.5 6.5h0.010"></path>
</symbol>
<symbol id="icon-twitter" viewBox="0 0 24 24">
<path stroke-linejoin="round" stroke-linecap="round" stroke-miterlimit="4" stroke-width="2" d="M23 3c-0.9 0.642-1.943 1.164-3.063 1.509l-0.077 0.021c-0.826-0.946-2.034-1.54-3.38-1.54-2.474 0-4.48 2.006-4.48 4.48 0 0.021 0 0.042 0 0.063l-0-0.003v1c-0.082 0.002-0.179 0.004-0.275 0.004-1.748 0-3.398-0.421-4.854-1.167l0.060 0.028c-1.57-0.79-3.42-2.672-4.431-4.11 0 0-3.5 9.715 5.5 13.715-1.832 1.258-4.097 2.009-6.537 2.009-0.163 0-0.325-0.003-0.486-0.010l0.023 0.001c9 5 20 0 20-11.5 0-0.279-0.028-0.556-0.080-0.83 0.992-0.979 1.72-2.223 2.069-3.617l0.011-0.053z"></path>
</symbol>
<symbol id="icon-choko-plate" viewBox="0 0 23 24">
<path d="M9.784 0.342l6.229 6.237 0.066-0.066c0.128-0.125 0.303-0.202 0.496-0.202 0.188 0 0.358 0.073 0.485 0.192l-0-0 0.722 0.722c0.252 0.252 0.261 0.637 0.069 0.905l-0.003 0.006-0.118 0.159 5.098 5.098c0.455 0.455 0.455 1.183 0 1.639l-7.804 7.804c-0.455 0.455-1.183 0.455-1.639 0l-3.68-3.68c-0.121 0.151-0.301 0.251-0.505 0.263l-0.002 0c-0.012 0.001-0.025 0.001-0.039 0.001-0.193 0-0.368-0.078-0.494-0.205l-2.152-2.152c-0.125-0.128-0.202-0.303-0.202-0.496 0-0.188 0.073-0.358 0.192-0.485l-0 0 0.005-0.006 0.064-0.063-6.229-6.229c-0.455-0.455-0.455-1.183 0-1.639l7.804-7.804c0.455-0.455 1.183-0.455 1.639 0v0.001zM15.231 7.36l-1.453-1.452c-0.089-0.092-0.214-0.149-0.352-0.149s-0.263 0.057-0.352 0.149l-2.963 2.963c-0.091 0.091-0.148 0.217-0.148 0.356 0 0 0 0 0 0v0c0 0 0 0 0 0 0 0.139 0.057 0.265 0.148 0.356l1.447 1.447 0.505-0.505-1.295-1.295 2.657-2.665 1.298 1.303 0.507-0.507zM11.030 11.557l-1.452-1.452c-0.089-0.092-0.214-0.149-0.352-0.149-0.069 0-0.135 0.014-0.194 0.040l0.003-0.001c-0.063 0.027-0.116 0.064-0.161 0.11l-2.971 2.971c-0.199 0.19-0.199 0.505 0 0.703l1.45 1.45 0.51-0.51-1.299-1.294 2.665-2.657 1.294 1.294 0.506-0.506zM5.646 5.125l2.963 2.963c0.199 0.199 0.513 0.199 0.703-0.008l2.963-2.963c0.092-0.087 0.149-0.211 0.149-0.347 0-0 0-0 0-0v0h0.008c0-0.124-0.050-0.257-0.149-0.356l-2.963-2.963c-0.091-0.092-0.217-0.149-0.356-0.149-0.070 0-0.136 0.014-0.196 0.040l0.003-0.001c-0.063 0.027-0.118 0.064-0.163 0.11l-0 0-2.963 2.971c-0.199 0.19-0.199 0.505 0 0.703zM1.45 9.321l2.963 2.963c0.199 0.199 0.513 0.199 0.703 0l2.963-2.963c0.092-0.088 0.149-0.211 0.149-0.348 0-0.003-0-0.006-0-0.009v0h0.008c0-0.132-0.050-0.257-0.149-0.356l-2.963-2.963c-0.089-0.092-0.214-0.149-0.352-0.149s-0.263 0.057-0.352 0.149l-2.971 2.971c-0.199 0.19-0.199 0.505 0 0.703zM7.188 16.566l1.955 1.956 7.975-10.792-0.542-0.542-9.387 9.378z"></path>
<path d="M9.784 0.342l6.229 6.237 0.066-0.066c0.128-0.125 0.303-0.202 0.496-0.202 0.188 0 0.358 0.073 0.485 0.192l-0-0 0.722 0.722c0.252 0.252 0.261 0.637 0.069 0.905l-0.003 0.006-0.118 0.159 5.098 5.098c0.455 0.455 0.455 1.183 0 1.639l-7.804 7.804c-0.455 0.455-1.183 0.455-1.639 0l-3.68-3.68c-0.121 0.151-0.301 0.251-0.505 0.263l-0.002 0c-0.012 0.001-0.025 0.001-0.039 0.001-0.193 0-0.368-0.078-0.494-0.205l-2.152-2.152c-0.125-0.128-0.202-0.303-0.202-0.496 0-0.188 0.073-0.358 0.192-0.485l-0 0 0.005-0.006 0.064-0.063-6.229-6.229c-0.455-0.455-0.455-1.183 0-1.639l7.804-7.804c0.455-0.455 1.183-0.455 1.639 0v0.001zM15.231 7.36l-1.453-1.452c-0.089-0.092-0.214-0.149-0.352-0.149s-0.263 0.057-0.352 0.149l-2.963 2.963c-0.091 0.091-0.148 0.217-0.148 0.356 0 0 0 0 0 0v0c0 0 0 0 0 0 0 0.139 0.057 0.265 0.148 0.356l1.447 1.447 0.505-0.505-1.295-1.295 2.657-2.665 1.298 1.303 0.507-0.507zM11.030 11.557l-1.452-1.452c-0.089-0.092-0.214-0.149-0.352-0.149-0.069 0-0.135 0.014-0.194 0.040l0.003-0.001c-0.063 0.027-0.116 0.064-0.161 0.11l-2.971 2.971c-0.199 0.19-0.199 0.505 0 0.703l1.45 1.45 0.51-0.51-1.299-1.294 2.665-2.657 1.294 1.294 0.506-0.506zM5.646 5.125l2.963 2.963c0.199 0.199 0.513 0.199 0.703-0.008l2.963-2.963c0.092-0.087 0.149-0.211 0.149-0.347 0-0 0-0 0-0v0h0.008c0-0.124-0.050-0.257-0.149-0.356l-2.963-2.963c-0.091-0.092-0.217-0.149-0.356-0.149-0.070 0-0.136 0.014-0.196 0.040l0.003-0.001c-0.063 0.027-0.118 0.064-0.163 0.11l-0 0-2.963 2.971c-0.199 0.19-0.199 0.505 0 0.703zM1.45 9.321l2.963 2.963c0.199 0.199 0.513 0.199 0.703 0l2.963-2.963c0.092-0.088 0.149-0.211 0.149-0.348 0-0.003-0-0.006-0-0.009v0h0.008c0-0.132-0.050-0.257-0.149-0.356l-2.963-2.963c-0.089-0.092-0.214-0.149-0.352-0.149s-0.263 0.057-0.352 0.149l-2.971 2.971c-0.199 0.19-0.199 0.505 0 0.703zM7.188 16.566l1.955 1.956 7.975-10.792-0.542-0.542-9.387 9.378z"></path>
</symbol>
<symbol id="icon-coin" viewBox="0 0 24 24">
<path d="M12 0.571c-6.286 0-11.429 5.143-11.429 11.429s5.143 11.429 11.429 11.429c6.286 0 11.429-5.143 11.429-11.429s-5.143-11.429-11.429-11.429zM12 21.143c-5.029 0-9.143-4.114-9.143-9.143s4.114-9.143 9.143-9.143c5.029 0 9.143 4.114 9.143 9.143s-4.114 9.143-9.143 9.143z"></path>
<path d="M13.486 10.857h-2.971c-0.001 0-0.003 0-0.004 0-0.566 0-1.024-0.459-1.024-1.024 0-0.002 0-0.003 0-0.005v0c0-0.571 0.457-1.029 1.029-1.029h4.229c0.686 0 1.143-0.457 1.143-1.143s-0.457-1.143-1.143-1.143h-1.6v-1.029c0-0.686-0.457-1.143-1.143-1.143s-1.143 0.457-1.143 1.143v1.029h-0.343c-1.829 0-3.314 1.486-3.314 3.314s1.486 3.314 3.314 3.314h2.857c0.571 0 1.029 0.457 1.029 1.029s-0.457 1.029-1.029 1.029h-4.229c-0.686 0-1.143 0.457-1.143 1.143s0.457 1.143 1.143 1.143h1.714v1.029c0 0.686 0.457 1.143 1.143 1.143s1.143-0.457 1.143-1.143v-1.029h0.343c1.829 0 3.314-1.486 3.314-3.314s-1.486-3.314-3.314-3.314z"></path>
</symbol>
<symbol id="icon-cross-button" viewBox="0 0 24 24">
<path stroke-linejoin="round" stroke-linecap="round" stroke-miterlimit="4" stroke-width="3.4286" d="M21.994 2.006l-19.989 19.989M2.006 2.006l19.989 19.989"></path>
</symbol>
<symbol id="icon-arrow-down" viewBox="0 0 24 24">
<path d="M12.71 13.4c-0.093 0.094-0.204 0.168-0.325 0.219s-0.253 0.077-0.385 0.077-0.263-0.026-0.385-0.077c-0.122-0.051-0.232-0.125-0.325-0.219l-4.58-4.59c-0.093-0.094-0.204-0.168-0.325-0.219s-0.253-0.077-0.385-0.077c-0.132 0-0.263 0.026-0.385 0.077s-0.232 0.125-0.325 0.219c-0.186 0.187-0.291 0.441-0.291 0.705s0.105 0.518 0.291 0.705l4.59 4.59c0.563 0.562 1.325 0.877 2.12 0.877s1.557-0.315 2.12-0.877l4.59-4.59c0.185-0.186 0.289-0.438 0.29-0.7 0.001-0.132-0.024-0.262-0.074-0.384s-0.123-0.233-0.216-0.326c-0.093-0.094-0.204-0.168-0.326-0.219s-0.253-0.077-0.385-0.077-0.263 0.026-0.385 0.077c-0.122 0.051-0.232 0.125-0.325 0.219l-4.58 4.59z"></path>
</symbol>
<symbol id="icon-spoon" viewBox="0 0 24 24">
<path d="M11.53 10.377c-0.671-0.814-1.009-1.814-1.009-2.813 0-3.706 4.441-7.408 8.882-7.408 2.452 0 4.441 1.99 4.441 4.442 0 4.442-3.701 8.884-7.411 8.884-0.999 0-1.998-0.338-2.813-1.009l-10.936 10.938c-0.578 0.578-1.517 0.578-2.096 0s-0.578-1.518 0-2.096l10.94-10.938z"></path>
</symbol>
<symbol id="icon-close" viewBox="0 0 32 32">
<path stroke-linejoin="round" stroke-linecap="round" stroke-miterlimit="4" stroke-width="2.2857" d="M24 8l-16 16"></path>
<path stroke-linejoin="round" stroke-linecap="round" stroke-miterlimit="4" stroke-width="2.2857" d="M8 8l16 16"></path>
</symbol>
</defs>
</svg>
